<mxfile host="app.diagrams.net" agent="Mozilla/5.0 (X11; Linux x86_64; rv:140.0) Gecko/20100101 Firefox/140.0" version="27.1.6">
  <diagram name="Page-1" id="NIxJwfgbC7J5wPMpq_6a">
    <mxGraphModel dx="1115" dy="618" grid="1" gridSize="10" guides="1" tooltips="1" connect="1" arrows="1" fold="1" page="1" pageScale="1" pageWidth="850" pageHeight="1100" math="0" shadow="0">
      <root>
        <mxCell id="0" />
        <mxCell id="1" parent="0" />
        <mxCell id="WKgh5YdHEbA8iNIJ1eqv-1" value="" style="rounded=0;whiteSpace=wrap;html=1;rotation=90;" parent="1" vertex="1">
          <mxGeometry x="90" y="460" width="120" height="60" as="geometry" />
        </mxCell>
        <mxCell id="WKgh5YdHEbA8iNIJ1eqv-3" value="" style="rounded=1;whiteSpace=wrap;html=1;rotation=-90;" parent="1" vertex="1">
          <mxGeometry x="110" y="480" width="40" height="20" as="geometry" />
        </mxCell>
        <mxCell id="WKgh5YdHEbA8iNIJ1eqv-4" value="" style="ellipse;whiteSpace=wrap;html=1;aspect=fixed;" parent="1" vertex="1">
          <mxGeometry x="160" y="440" width="10" height="10" as="geometry" />
        </mxCell>
        <mxCell id="WKgh5YdHEbA8iNIJ1eqv-32" style="edgeStyle=orthogonalEdgeStyle;rounded=0;orthogonalLoop=1;jettySize=auto;html=1;entryX=0;entryY=0.5;entryDx=0;entryDy=0;" parent="1" source="WKgh5YdHEbA8iNIJ1eqv-5" target="WKgh5YdHEbA8iNIJ1eqv-15" edge="1">
          <mxGeometry relative="1" as="geometry" />
        </mxCell>
        <mxCell id="WKgh5YdHEbA8iNIJ1eqv-5" value="" style="ellipse;whiteSpace=wrap;html=1;aspect=fixed;" parent="1" vertex="1">
          <mxGeometry x="160" y="460" width="10" height="10" as="geometry" />
        </mxCell>
        <mxCell id="WKgh5YdHEbA8iNIJ1eqv-53" style="edgeStyle=orthogonalEdgeStyle;rounded=0;orthogonalLoop=1;jettySize=auto;html=1;entryX=0;entryY=0.5;entryDx=0;entryDy=0;" parent="1" source="WKgh5YdHEbA8iNIJ1eqv-6" target="WKgh5YdHEbA8iNIJ1eqv-17" edge="1">
          <mxGeometry relative="1" as="geometry">
            <Array as="points">
              <mxPoint x="250" y="485" />
              <mxPoint x="250" y="455" />
            </Array>
          </mxGeometry>
        </mxCell>
        <mxCell id="WKgh5YdHEbA8iNIJ1eqv-6" value="" style="ellipse;whiteSpace=wrap;html=1;aspect=fixed;" parent="1" vertex="1">
          <mxGeometry x="160" y="480" width="10" height="10" as="geometry" />
        </mxCell>
        <mxCell id="WKgh5YdHEbA8iNIJ1eqv-54" style="edgeStyle=orthogonalEdgeStyle;rounded=0;orthogonalLoop=1;jettySize=auto;html=1;entryX=0;entryY=0.5;entryDx=0;entryDy=0;" parent="1" source="WKgh5YdHEbA8iNIJ1eqv-12" target="WKgh5YdHEbA8iNIJ1eqv-19" edge="1">
          <mxGeometry relative="1" as="geometry">
            <Array as="points">
              <mxPoint x="260" y="505" />
              <mxPoint x="260" y="485" />
            </Array>
          </mxGeometry>
        </mxCell>
        <mxCell id="WKgh5YdHEbA8iNIJ1eqv-12" value="" style="ellipse;whiteSpace=wrap;html=1;aspect=fixed;" parent="1" vertex="1">
          <mxGeometry x="160" y="500" width="10" height="10" as="geometry" />
        </mxCell>
        <mxCell id="WKgh5YdHEbA8iNIJ1eqv-13" value="" style="ellipse;whiteSpace=wrap;html=1;aspect=fixed;" parent="1" vertex="1">
          <mxGeometry x="160" y="520" width="10" height="10" as="geometry" />
        </mxCell>
        <mxCell id="WKgh5YdHEbA8iNIJ1eqv-14" value="" style="rounded=0;whiteSpace=wrap;html=1;rotation=-90;" parent="1" vertex="1">
          <mxGeometry x="270" y="435" width="200" height="110" as="geometry" />
        </mxCell>
        <mxCell id="WKgh5YdHEbA8iNIJ1eqv-15" value="" style="ellipse;whiteSpace=wrap;html=1;aspect=fixed;" parent="1" vertex="1">
          <mxGeometry x="320" y="420" width="10" height="10" as="geometry" />
        </mxCell>
        <mxCell id="w2yAtsDgV9bJHnudN41--2" style="edgeStyle=orthogonalEdgeStyle;rounded=0;orthogonalLoop=1;jettySize=auto;html=1;entryX=0;entryY=0.5;entryDx=0;entryDy=0;" edge="1" parent="1" source="WKgh5YdHEbA8iNIJ1eqv-16" target="WKgh5YdHEbA8iNIJ1eqv-44">
          <mxGeometry relative="1" as="geometry" />
        </mxCell>
        <mxCell id="WKgh5YdHEbA8iNIJ1eqv-16" value="" style="ellipse;whiteSpace=wrap;html=1;aspect=fixed;" parent="1" vertex="1">
          <mxGeometry x="410" y="420" width="10" height="10" as="geometry" />
        </mxCell>
        <mxCell id="WKgh5YdHEbA8iNIJ1eqv-17" value="" style="ellipse;whiteSpace=wrap;html=1;aspect=fixed;" parent="1" vertex="1">
          <mxGeometry x="320" y="450" width="10" height="10" as="geometry" />
        </mxCell>
        <mxCell id="w2yAtsDgV9bJHnudN41--3" style="edgeStyle=orthogonalEdgeStyle;rounded=0;orthogonalLoop=1;jettySize=auto;html=1;entryX=1;entryY=0.5;entryDx=0;entryDy=0;jumpStyle=arc;" edge="1" parent="1" source="WKgh5YdHEbA8iNIJ1eqv-18" target="WKgh5YdHEbA8iNIJ1eqv-45">
          <mxGeometry relative="1" as="geometry">
            <Array as="points">
              <mxPoint x="500" y="455" />
              <mxPoint x="500" y="330" />
              <mxPoint x="720" y="330" />
              <mxPoint x="720" y="605" />
            </Array>
          </mxGeometry>
        </mxCell>
        <mxCell id="WKgh5YdHEbA8iNIJ1eqv-18" value="" style="ellipse;whiteSpace=wrap;html=1;aspect=fixed;" parent="1" vertex="1">
          <mxGeometry x="410" y="450" width="10" height="10" as="geometry" />
        </mxCell>
        <mxCell id="WKgh5YdHEbA8iNIJ1eqv-19" value="" style="ellipse;whiteSpace=wrap;html=1;aspect=fixed;" parent="1" vertex="1">
          <mxGeometry x="320" y="480" width="10" height="10" as="geometry" />
        </mxCell>
        <mxCell id="w2yAtsDgV9bJHnudN41--4" style="edgeStyle=orthogonalEdgeStyle;rounded=0;orthogonalLoop=1;jettySize=auto;html=1;entryX=1;entryY=0.5;entryDx=0;entryDy=0;jumpStyle=arc;fillColor=#f8cecc;strokeColor=#b85450;" edge="1" parent="1" source="WKgh5YdHEbA8iNIJ1eqv-20" target="WKgh5YdHEbA8iNIJ1eqv-47">
          <mxGeometry relative="1" as="geometry">
            <Array as="points">
              <mxPoint x="535" y="485" />
              <mxPoint x="535" y="350" />
              <mxPoint x="680" y="350" />
              <mxPoint x="680" y="505" />
            </Array>
          </mxGeometry>
        </mxCell>
        <mxCell id="WKgh5YdHEbA8iNIJ1eqv-20" value="" style="ellipse;whiteSpace=wrap;html=1;aspect=fixed;" parent="1" vertex="1">
          <mxGeometry x="410" y="480" width="10" height="10" as="geometry" />
        </mxCell>
        <mxCell id="WKgh5YdHEbA8iNIJ1eqv-22" value="" style="ellipse;whiteSpace=wrap;html=1;aspect=fixed;" parent="1" vertex="1">
          <mxGeometry x="320" y="510" width="10" height="10" as="geometry" />
        </mxCell>
        <mxCell id="w2yAtsDgV9bJHnudN41--5" style="edgeStyle=orthogonalEdgeStyle;rounded=0;orthogonalLoop=1;jettySize=auto;html=1;entryX=1;entryY=0.5;entryDx=0;entryDy=0;jumpStyle=arc;fillColor=#d5e8d4;strokeColor=#82b366;" edge="1" parent="1" source="WKgh5YdHEbA8iNIJ1eqv-23" target="WKgh5YdHEbA8iNIJ1eqv-46">
          <mxGeometry relative="1" as="geometry">
            <Array as="points">
              <mxPoint x="520" y="515" />
              <mxPoint x="520" y="340" />
              <mxPoint x="690" y="340" />
              <mxPoint x="690" y="485" />
            </Array>
          </mxGeometry>
        </mxCell>
        <mxCell id="WKgh5YdHEbA8iNIJ1eqv-23" value="" style="ellipse;whiteSpace=wrap;html=1;aspect=fixed;" parent="1" vertex="1">
          <mxGeometry x="410" y="510" width="10" height="10" as="geometry" />
        </mxCell>
        <mxCell id="WKgh5YdHEbA8iNIJ1eqv-25" value="12V" style="text;html=1;align=center;verticalAlign=middle;whiteSpace=wrap;rounded=0;" parent="1" vertex="1">
          <mxGeometry x="180" y="440" width="30" height="10" as="geometry" />
        </mxCell>
        <mxCell id="WKgh5YdHEbA8iNIJ1eqv-26" value="GND" style="text;html=1;align=center;verticalAlign=middle;whiteSpace=wrap;rounded=0;" parent="1" vertex="1">
          <mxGeometry x="180" y="460" width="30" height="10" as="geometry" />
        </mxCell>
        <mxCell id="WKgh5YdHEbA8iNIJ1eqv-27" value="5V" style="text;html=1;align=center;verticalAlign=middle;whiteSpace=wrap;rounded=0;" parent="1" vertex="1">
          <mxGeometry x="180" y="480" width="30" height="10" as="geometry" />
        </mxCell>
        <mxCell id="WKgh5YdHEbA8iNIJ1eqv-28" value="TX" style="text;html=1;align=center;verticalAlign=middle;whiteSpace=wrap;rounded=0;" parent="1" vertex="1">
          <mxGeometry x="180" y="500" width="30" height="10" as="geometry" />
        </mxCell>
        <mxCell id="WKgh5YdHEbA8iNIJ1eqv-29" value="RX" style="text;html=1;align=center;verticalAlign=middle;whiteSpace=wrap;rounded=0;" parent="1" vertex="1">
          <mxGeometry x="180" y="520" width="30" height="10" as="geometry" />
        </mxCell>
        <mxCell id="WKgh5YdHEbA8iNIJ1eqv-33" value="GND" style="text;html=1;align=center;verticalAlign=middle;whiteSpace=wrap;rounded=0;" parent="1" vertex="1">
          <mxGeometry x="330" y="420" width="30" height="10" as="geometry" />
        </mxCell>
        <mxCell id="WKgh5YdHEbA8iNIJ1eqv-34" value="GND" style="text;html=1;align=center;verticalAlign=middle;whiteSpace=wrap;rounded=0;" parent="1" vertex="1">
          <mxGeometry x="380" y="420" width="30" height="10" as="geometry" />
        </mxCell>
        <mxCell id="WKgh5YdHEbA8iNIJ1eqv-35" value="HV" style="text;html=1;align=center;verticalAlign=middle;whiteSpace=wrap;rounded=0;" parent="1" vertex="1">
          <mxGeometry x="330" y="450" width="30" height="10" as="geometry" />
        </mxCell>
        <mxCell id="WKgh5YdHEbA8iNIJ1eqv-36" value="LV" style="text;html=1;align=center;verticalAlign=middle;whiteSpace=wrap;rounded=0;" parent="1" vertex="1">
          <mxGeometry x="380" y="450" width="30" height="10" as="geometry" />
        </mxCell>
        <mxCell id="WKgh5YdHEbA8iNIJ1eqv-37" value="HV1" style="text;html=1;align=center;verticalAlign=middle;whiteSpace=wrap;rounded=0;" parent="1" vertex="1">
          <mxGeometry x="330" y="480" width="30" height="10" as="geometry" />
        </mxCell>
        <mxCell id="WKgh5YdHEbA8iNIJ1eqv-38" value="HV2" style="text;html=1;align=center;verticalAlign=middle;whiteSpace=wrap;rounded=0;" parent="1" vertex="1">
          <mxGeometry x="330" y="510" width="30" height="10" as="geometry" />
        </mxCell>
        <mxCell id="WKgh5YdHEbA8iNIJ1eqv-39" value="LV1" style="text;html=1;align=center;verticalAlign=middle;whiteSpace=wrap;rounded=0;" parent="1" vertex="1">
          <mxGeometry x="380" y="480" width="30" height="10" as="geometry" />
        </mxCell>
        <mxCell id="WKgh5YdHEbA8iNIJ1eqv-40" value="LV2" style="text;html=1;align=center;verticalAlign=middle;whiteSpace=wrap;rounded=0;" parent="1" vertex="1">
          <mxGeometry x="380" y="510" width="30" height="10" as="geometry" />
        </mxCell>
        <mxCell id="WKgh5YdHEbA8iNIJ1eqv-41" value="5v-3.3v Shifter" style="text;html=1;align=center;verticalAlign=middle;whiteSpace=wrap;rounded=0;" parent="1" vertex="1">
          <mxGeometry x="340" y="545" width="60" height="30" as="geometry" />
        </mxCell>
        <mxCell id="WKgh5YdHEbA8iNIJ1eqv-42" value="" style="rounded=0;whiteSpace=wrap;html=1;rotation=90;" parent="1" vertex="1">
          <mxGeometry x="470" y="440" width="270" height="115" as="geometry" />
        </mxCell>
        <mxCell id="WKgh5YdHEbA8iNIJ1eqv-43" value="" style="ellipse;whiteSpace=wrap;html=1;aspect=fixed;" parent="1" vertex="1">
          <mxGeometry x="550" y="600" width="10" height="10" as="geometry" />
        </mxCell>
        <mxCell id="WKgh5YdHEbA8iNIJ1eqv-44" value="" style="ellipse;whiteSpace=wrap;html=1;aspect=fixed;" parent="1" vertex="1">
          <mxGeometry x="550" y="580" width="10" height="10" as="geometry" />
        </mxCell>
        <mxCell id="WKgh5YdHEbA8iNIJ1eqv-45" value="" style="ellipse;whiteSpace=wrap;html=1;aspect=fixed;" parent="1" vertex="1">
          <mxGeometry x="650" y="600" width="10" height="10" as="geometry" />
        </mxCell>
        <mxCell id="WKgh5YdHEbA8iNIJ1eqv-46" value="" style="ellipse;whiteSpace=wrap;html=1;aspect=fixed;" parent="1" vertex="1">
          <mxGeometry x="650" y="480" width="10" height="10" as="geometry" />
        </mxCell>
        <mxCell id="WKgh5YdHEbA8iNIJ1eqv-47" value="" style="ellipse;whiteSpace=wrap;html=1;aspect=fixed;" parent="1" vertex="1">
          <mxGeometry x="650" y="500" width="10" height="10" as="geometry" />
        </mxCell>
        <mxCell id="WKgh5YdHEbA8iNIJ1eqv-48" value="GND" style="text;html=1;align=center;verticalAlign=middle;whiteSpace=wrap;rounded=0;" parent="1" vertex="1">
          <mxGeometry x="560" y="580" width="30" height="10" as="geometry" />
        </mxCell>
        <mxCell id="WKgh5YdHEbA8iNIJ1eqv-49" value="VIN" style="text;html=1;align=center;verticalAlign=middle;whiteSpace=wrap;rounded=0;" parent="1" vertex="1">
          <mxGeometry x="560" y="600" width="30" height="10" as="geometry" />
        </mxCell>
        <mxCell id="WKgh5YdHEbA8iNIJ1eqv-50" value="3V3" style="text;html=1;align=center;verticalAlign=middle;whiteSpace=wrap;rounded=0;" parent="1" vertex="1">
          <mxGeometry x="620" y="600" width="30" height="10" as="geometry" />
        </mxCell>
        <mxCell id="WKgh5YdHEbA8iNIJ1eqv-51" value="TX2" style="text;html=1;align=center;verticalAlign=middle;whiteSpace=wrap;rounded=0;" parent="1" vertex="1">
          <mxGeometry x="620" y="480" width="30" height="10" as="geometry" />
        </mxCell>
        <mxCell id="WKgh5YdHEbA8iNIJ1eqv-52" value="RX2" style="text;html=1;align=center;verticalAlign=middle;whiteSpace=wrap;rounded=0;" parent="1" vertex="1">
          <mxGeometry x="620" y="500" width="30" height="10" as="geometry" />
        </mxCell>
        <mxCell id="WKgh5YdHEbA8iNIJ1eqv-55" style="edgeStyle=orthogonalEdgeStyle;rounded=0;orthogonalLoop=1;jettySize=auto;html=1;entryX=0.267;entryY=0.467;entryDx=0;entryDy=0;entryPerimeter=0;" parent="1" source="WKgh5YdHEbA8iNIJ1eqv-13" target="WKgh5YdHEbA8iNIJ1eqv-22" edge="1">
          <mxGeometry relative="1" as="geometry" />
        </mxCell>
        <mxCell id="w2yAtsDgV9bJHnudN41--1" value="" style="endArrow=classic;html=1;rounded=0;entryX=0;entryY=0.5;entryDx=0;entryDy=0;jumpStyle=arc;" edge="1" parent="1" target="WKgh5YdHEbA8iNIJ1eqv-43">
          <mxGeometry width="50" height="50" relative="1" as="geometry">
            <mxPoint x="250" y="480" as="sourcePoint" />
            <mxPoint x="250" y="670" as="targetPoint" />
            <Array as="points">
              <mxPoint x="250" y="605" />
            </Array>
          </mxGeometry>
        </mxCell>
        <mxCell id="w2yAtsDgV9bJHnudN41--6" value="ESP32" style="text;html=1;align=center;verticalAlign=middle;whiteSpace=wrap;rounded=0;" vertex="1" parent="1">
          <mxGeometry x="570" y="380" width="60" height="30" as="geometry" />
        </mxCell>
        <mxCell id="w2yAtsDgV9bJHnudN41--7" value="CN105" style="text;html=1;align=center;verticalAlign=middle;whiteSpace=wrap;rounded=0;rotation=90;" vertex="1" parent="1">
          <mxGeometry x="70" y="470" width="60" height="30" as="geometry" />
        </mxCell>
      </root>
    </mxGraphModel>
  </diagram>
</mxfile>
